<svg xmlns="http://www.w3.org/2000/svg" fill="none" viewBox="99 75 172.91 182.87">
<path d="M271.915 257.872L254.753 116.325C254.892 117.454 254.981 118.596 255.057 119.75V120.663C255.057 121.551 255.057 122.452 255.057 123.365C255.057 123.555 255.057 123.745 255.057 123.948C255.057 125.039 255.057 126.13 254.93 127.246C254.93 127.525 254.93 127.817 254.93 128.109C254.867 128.971 254.791 129.847 254.689 130.735C254.689 131.052 254.626 131.369 254.588 131.699C254.436 132.84 254.271 133.982 254.068 135.149V135.352C253.903 136.278 253.725 137.204 253.522 138.142C253.446 138.485 253.358 138.827 253.281 139.157C253.129 139.829 252.964 140.502 252.799 141.174C252.698 141.58 252.571 141.986 252.47 142.442C252.292 143.051 252.127 143.711 251.937 144.294C251.81 144.726 251.67 145.157 251.531 145.563C251.391 145.969 251.15 146.755 250.947 147.364C250.744 147.973 250.643 148.252 250.478 148.696C250.313 149.14 250.047 149.888 249.806 150.497C249.565 151.106 249.463 151.385 249.286 151.829C249.108 152.273 248.791 153.097 248.537 153.656L247.967 154.924L247.104 156.814C246.901 157.233 246.711 157.664 246.508 158.083C246.178 158.767 245.836 159.44 245.48 160.125C245.252 160.569 245.036 161.025 244.795 161.469C244.123 162.738 243.438 164.006 242.715 165.275C242.461 165.719 242.182 166.15 241.916 166.543C241.447 167.33 240.977 168.129 240.483 168.915C240.153 169.435 239.798 169.955 239.455 170.475C239.113 170.995 238.567 171.845 238.111 172.518L237.109 173.913C236.614 174.61 236.119 175.333 235.599 176.031C234.483 177.528 233.316 178.999 232.136 180.458L231.198 181.587C230.119 182.855 229.016 184.124 227.9 185.392L227.468 185.874C226.301 187.143 225.122 188.411 223.904 189.591L222.902 190.58C221.989 191.481 221.063 192.356 220.124 193.231L218.944 194.297C217.828 195.299 216.712 196.288 215.558 197.252L214.999 197.734C213.668 198.838 212.323 199.903 210.966 200.944C210.141 201.565 209.317 202.212 208.429 202.796L207.985 203.125C206.945 203.874 205.892 204.597 204.826 205.32L203.926 205.916C203.152 206.436 202.366 206.943 201.579 207.438L200.514 208.098L198.624 209.239L196.658 210.381L194.92 211.345L192.941 212.398L191.178 213.298L189.174 214.275L187.398 215.112L185.381 216L183.58 216.761L181.563 217.56C180.954 217.801 180.358 218.03 179.749 218.245C179.14 218.461 178.392 218.74 177.719 218.968C177.047 219.197 176.514 219.387 175.906 219.577L173.863 220.211L172.062 220.744L169.995 221.277L168.206 221.721L166.138 222.178L164.35 222.545L162.27 222.901L160.519 223.18L158.426 223.433L156.701 223.624C156.004 223.624 155.293 223.738 154.596 223.776C153.898 223.814 153.479 223.865 152.921 223.89H150.777C150.232 223.89 149.699 223.89 149.167 223.89C148.418 223.89 147.67 223.89 146.934 223.827H145.45C144.638 223.827 143.826 223.687 143.015 223.611C142.609 223.611 142.19 223.547 141.746 223.497C140.541 223.357 139.336 223.18 138.144 222.964C137.383 222.837 136.622 222.685 135.873 222.52C135.125 222.355 134.402 222.19 133.679 222L271.915 257.872Z" fill="url(#paint0_linear_223_3311)"/>
<g filter="url(#filter0_d_223_3311)">
<path d="M217.47 195.643C254.367 163.353 266.196 116.513 243.889 91.0241C221.583 65.5348 173.589 71.0478 136.691 103.338C99.7937 135.628 87.9652 182.467 110.272 207.957C132.578 233.446 180.572 227.933 217.47 195.643Z" fill="url(#paint1_linear_223_3311)"/>
</g>
<path opacity="0.8" d="M215.938 75.9881C178.532 69.3541 130.812 96.8923 109.388 137.495C87.964 178.099 100.864 216.393 138.271 223.015C175.678 229.636 223.384 202.111 244.821 161.507C266.258 120.904 253.332 82.6222 215.938 75.9881ZM244.022 161.089C224.995 197.024 185.394 223.104 149.75 223.104C145.945 223.111 142.146 222.784 138.398 222.127C122.961 219.4 111.037 210.863 104.796 198.128C96.7163 181.638 98.6697 159.63 110.149 137.901C129.176 101.966 168.79 75.8867 204.421 75.8867C208.247 75.8718 212.067 76.1944 215.837 76.8507C231.274 79.5905 243.21 88.1146 249.438 100.863C257.506 117.416 255.514 139.36 244.022 161.089Z" fill="url(#paint2_linear_223_3311)" style="mix-blend-mode:overlay"/>
<defs>
<filter id="filter0_d_223_3311" x="0" y="0" width="366.161" height="358.981" filterUnits="userSpaceOnUse" color-interpolation-filters="sRGB">
<feFlood flood-opacity="0" result="BackgroundImageFix"/>
<feColorMatrix in="SourceAlpha" type="matrix" values="0 0 0 0 0 0 0 0 0 0 0 0 0 0 0 0 0 0 127 0" result="hardAlpha"/>
<feMorphology radius="5" operator="dilate" in="SourceAlpha" result="effect1_dropShadow_223_3311"/>
<feOffset dx="6" dy="30"/>
<feGaussianBlur stdDeviation="50"/>
<feComposite in2="hardAlpha" operator="out"/>
<feColorMatrix type="matrix" values="0 0 0 0 0.958333 0 0 0 0 0.939167 0 0 0 0 0.926389 0 0 0 0.7 0"/>
<feBlend mode="normal" in2="BackgroundImageFix" result="effect1_dropShadow_223_3311"/>
<feBlend mode="normal" in="SourceGraphic" in2="effect1_dropShadow_223_3311" result="shape"/>
</filter>
<linearGradient id="paint0_linear_223_3311" x1="182.382" y1="237.872" x2="260.382" y2="186.872" gradientUnits="userSpaceOnUse">
<stop stop-color="#775AD8"/>
<stop offset="0.481526" stop-color="#7E5DDC"/>
<stop offset="1" stop-color="#B7AAEF" stop-opacity="0.66"/>
</linearGradient>
<linearGradient id="paint1_linear_223_3311" x1="69.8746" y1="161.804" x2="261.44" y2="221.543" gradientUnits="userSpaceOnUse">
<stop stop-color="#5F3EA3"/>
<stop offset="0.418008" stop-color="#8468F5"/>
<stop offset="1" stop-color="#D5D1EB"/>
</linearGradient>
<linearGradient id="paint2_linear_223_3311" x1="38848.6" y1="29915.9" x2="37002.1" y2="54428.8" gradientUnits="userSpaceOnUse">
<stop stop-color="#D5D1EB"/>
<stop offset="0.15625" stop-color="#D0CCE6" stop-opacity="0.958077"/>
<stop offset="0.22" stop-color="#E5E3F3" stop-opacity="0.89"/>
<stop offset="0.38" stop-color="#E1DDF5" stop-opacity="0.75"/>
<stop offset="0.57" stop-color="#E7E4F9" stop-opacity="0.56"/>
<stop offset="0.77" stop-color="#D5D1EB" stop-opacity="0.31"/>
<stop offset="0.895833" stop-color="#D5D1EB" stop-opacity="0"/>
<stop offset="0.99" stop-color="#D5D1EB" stop-opacity="0.02"/>
</linearGradient>
</defs>
</svg>