<svg width="33" height="33" viewBox="0 0 33 33" fill="none" xmlns="http://www.w3.org/2000/svg">
<path d="M28.5 16.5V31.5H4.5V16.5M16.5 31.5V9M16.5 9H9.75C8.75544 9 7.80161 8.60491 7.09835 7.90165C6.39509 7.19839 6 6.24456 6 5.25C6 4.25544 6.39509 3.30161 7.09835 2.59835C7.80161 1.89509 8.75544 1.5 9.75 1.5C15 1.5 16.5 9 16.5 9ZM16.5 9H23.25C24.2446 9 25.1984 8.60491 25.9017 7.90165C26.6049 7.19839 27 6.24456 27 5.25C27 4.25544 26.6049 3.30161 25.9017 2.59835C25.1984 1.89509 24.2446 1.5 23.25 1.5C18 1.5 16.5 9 16.5 9ZM1.5 9H31.5V16.5H1.5V9Z" stroke="#5F3EA3" stroke-width="3" stroke-linecap="round" stroke-linejoin="round"/>
</svg>
