<svg width="739" height="146" viewBox="0 0 739 146" fill="none" xmlns="http://www.w3.org/2000/svg">
<g filter="url(#filter0_ddddii_223_3969)">
<path fill-rule="evenodd" clip-rule="evenodd" d="M158.47 32.926C151.709 32.926 145.867 34.0909 140.887 36.3486L140.874 36.3544L140.861 36.3601C135.803 38.5836 131.626 41.5823 128.286 45.3425L128.278 45.3509L128.271 45.3592C124.88 49.1064 122.333 53.2514 120.612 57.8021C118.95 62.3914 118.125 67.0305 118.125 71.7311V74.1586C118.125 78.4042 118.908 82.8309 120.511 87.4504C122.165 91.9342 124.65 96.1665 127.993 100.149C131.266 103.977 135.413 107.117 140.479 109.556C145.52 111.875 151.496 113.074 158.47 113.074C165.451 113.074 171.389 111.872 176.352 109.556C181.496 107.115 185.678 103.973 188.948 100.149C192.295 96.1615 194.782 91.9241 196.435 87.4347C198.109 82.8162 198.926 78.3951 198.926 74.1586V71.7311C198.926 67.0382 198.067 62.4047 196.335 57.8176C194.613 53.2608 192.065 49.1107 188.67 45.3592L188.663 45.3509L188.655 45.3425C185.315 41.5823 181.138 38.5836 176.079 36.3601L176.067 36.3544L176.054 36.3486C171.074 34.0909 165.231 32.926 158.47 32.926ZM138.877 31.8541C144.603 29.2607 151.153 28 158.47 28C165.788 28 172.338 29.2607 178.064 31.8541C183.707 34.3365 188.472 37.7332 192.316 42.0579C196.106 46.2488 198.983 50.9231 200.928 56.0727C202.863 61.1958 203.838 66.4195 203.838 71.7311V74.1586C203.838 79.0419 202.895 84.0347 201.049 89.1241L201.045 89.1355C199.179 94.2039 196.388 98.9362 192.698 103.331L192.691 103.339L192.684 103.347C188.915 107.757 184.152 111.305 178.446 114.012L178.439 114.015L178.432 114.018C172.687 116.702 166.01 118 158.47 118C150.929 118 144.221 116.701 138.41 114.023L138.392 114.015L138.373 114.006C132.741 111.298 128.021 107.751 124.257 103.347L124.25 103.339L124.243 103.331C120.553 98.9362 117.762 94.2039 115.895 89.1355L115.888 89.1143L115.88 89.0929C114.114 84.0101 113.213 79.0281 113.213 74.1586V71.7311C113.213 66.4324 114.146 61.2193 116.001 56.1035L116.007 56.0881L116.013 56.0727C117.958 50.9227 120.835 46.248 124.626 42.0569C128.47 37.7327 133.235 34.3363 138.877 31.8541ZM259.066 32.926C252.305 32.926 246.463 34.0909 241.483 36.3486L241.47 36.3544L241.457 36.3601C236.399 38.5836 232.222 41.5823 228.881 45.3425L228.874 45.3509L228.866 45.3592C225.475 49.1066 222.929 53.2516 221.208 57.8026C219.546 62.3917 218.72 67.0307 218.72 71.7311V74.1586C218.72 78.4042 219.504 82.8309 221.107 87.4504C222.761 91.9343 225.246 96.1669 228.589 100.15C231.862 103.977 236.009 107.117 241.074 109.556C246.115 111.875 252.092 113.074 259.066 113.074C266.047 113.074 271.985 111.872 276.948 109.556C282.092 107.115 286.273 103.973 289.544 100.149C292.89 96.1615 295.377 91.9241 297.031 87.4347C298.705 82.8162 299.522 78.3951 299.522 74.1586V71.7311C299.522 67.0382 298.663 62.4047 296.93 57.8176C295.209 53.2608 292.66 49.1107 289.266 45.3592L289.258 45.3509L289.251 45.3425C285.911 41.5823 281.733 38.5836 276.675 36.3601L276.662 36.3544L276.649 36.3486C271.669 34.0909 265.827 32.926 259.066 32.926ZM239.472 31.8544C245.198 29.2608 251.749 28 259.066 28C266.384 28 272.934 29.2608 278.66 31.8543C284.303 34.3367 289.068 37.7334 292.912 42.0579C296.702 46.2488 299.579 50.9231 301.524 56.0727C303.459 61.1958 304.434 66.4195 304.434 71.7311V74.1586C304.434 79.0419 303.491 84.0347 301.645 89.1241L301.641 89.1355C299.775 94.2039 296.984 98.9362 293.294 103.331L293.287 103.339L293.28 103.347C289.51 107.757 284.747 111.305 279.041 114.012L279.035 114.015L279.028 114.018C273.283 116.702 266.606 118 259.066 118C251.525 118 244.817 116.701 239.006 114.023L238.987 114.015L238.969 114.006C233.337 111.298 228.616 107.751 224.853 103.347L224.846 103.339L224.839 103.331C221.149 98.9362 218.357 94.2039 216.491 89.1355L216.483 89.1143L216.476 89.0929C214.71 84.0101 213.808 79.0281 213.808 74.1586V71.7311C213.808 66.4324 214.742 61.2193 216.597 56.1035L216.603 56.0881L216.608 56.0727C218.554 50.9227 221.431 46.248 225.221 42.0569C229.065 37.7329 233.83 34.3365 239.472 31.8544ZM318.695 29.7655H350.969C358.465 29.7655 365.126 30.8659 370.901 33.1352C376.604 35.3765 381.417 38.4588 385.283 42.4123C389.184 46.3258 392.121 50.8404 394.079 55.941C396.027 60.9434 396.997 66.2127 396.997 71.7311V74.1586C396.997 79.4017 396.02 84.5235 394.078 89.5096C392.122 94.5306 389.193 99.0667 385.317 103.111C381.461 107.212 376.656 110.448 370.954 112.843L370.94 112.849L370.927 112.854C365.145 115.205 358.474 116.345 350.969 116.345H318.695V29.7655ZM323.607 34.6915V111.419H350.969C357.983 111.419 363.998 110.354 369.069 108.294C374.213 106.131 378.423 103.266 381.751 99.724L381.759 99.715L381.768 99.706C385.223 96.1026 387.792 92.1085 389.503 87.7173C391.228 83.2875 392.085 78.7727 392.085 74.1586V71.7311C392.085 66.8044 391.222 62.1438 389.503 57.731L389.498 57.719C387.79 53.2642 385.23 49.3253 381.802 45.8871L381.793 45.8783L381.784 45.8694C378.463 42.4712 374.257 39.7452 369.108 37.7216C364.026 35.7243 357.997 34.6915 350.969 34.6915H323.607ZM410.158 29.7655H444.192C454.591 29.7655 463.137 32.1245 469.565 37.1166C476.169 42.1703 479.327 49.7055 479.327 59.2624V61.0278C479.327 67.2963 477.878 72.7373 474.829 77.2023C472.438 80.7295 469.276 83.5263 465.397 85.6047L487.044 115.903H460.061L442.456 90.0834H433.115V115.903H410.158V29.7655ZM415.07 34.6915V110.977H428.203V85.1574H445.048L462.653 110.977H477.482L457.89 83.5557L460.745 82.3666C465.116 80.5456 468.423 77.8928 470.768 74.4298L470.774 74.4216C473.151 70.9425 474.415 66.5275 474.415 61.0278V59.2624C474.415 50.8737 471.707 44.9491 466.58 41.0283L466.572 41.0224L466.564 41.0165C461.256 36.8912 453.888 34.6915 444.192 34.6915H415.07ZM24 30.4275H46.957V62.5372H75.9341V30.4275H98.8911V115.903H75.9341V83.3525H46.957V115.903H24V30.4275ZM28.912 35.3535V110.977H42.0449V78.4265H80.8462V110.977H93.979V35.3535H80.8462V67.4632H42.0449V35.3535H28.912ZM487.282 30.4275H555.461V51.1325H532.795V115.903H509.838V51.1325H487.282V30.4275ZM492.194 35.3535V46.2065H514.75V110.977H527.883V46.2065H550.549V35.3535H492.194ZM579.808 30.4275H612.496L641.686 115.903H617.761L611.269 95.9315H581.285L574.903 115.903H551.669L579.808 30.4275ZM583.359 35.3535L558.464 110.977H571.319L577.701 91.0055H614.835L621.326 110.977H634.812L608.986 35.3535H583.359ZM648.361 30.4275H715V47.3394L675.377 96.0813H715V115.903H646.931V98.9949L686.454 50.1394H648.361V30.4275ZM653.273 35.3535V45.2134H690.776L693.653 49.06L651.843 100.742V110.977H710.088V101.007H671.045L668.165 97.1569L710.088 45.5859V35.3535H653.273ZM144.113 48.5437C148.228 46.0681 153.046 44.8824 158.47 44.8824C163.895 44.8824 168.713 46.0681 172.828 48.5437C176.891 50.9886 180.027 54.3813 182.212 58.6714C184.477 62.9005 185.573 67.7181 185.573 73.0552C185.573 78.1215 184.504 82.8123 182.335 87.0832C180.148 91.3878 176.974 94.8165 172.849 97.3331C168.732 99.8904 163.905 101.118 158.47 101.118C153.032 101.118 148.202 99.8885 144.083 97.3273C140.029 94.8071 136.898 91.3782 134.716 87.0832C132.547 82.8123 131.478 78.1215 131.478 73.0552C131.478 67.725 132.534 62.9137 134.72 58.6875C136.906 54.3897 140.045 50.9916 144.113 48.5437ZM158.47 49.8084C153.772 49.8084 149.862 50.8295 146.64 52.7677C143.376 54.7318 140.869 57.4364 139.093 60.9321L139.089 60.9406L139.084 60.9491C137.312 64.3712 136.39 68.3845 136.39 73.0552C136.39 77.4047 137.302 81.3207 139.093 84.8472C140.872 88.3498 143.389 91.1001 146.671 93.1407C149.887 95.1403 153.786 96.1916 158.47 96.1916C163.155 96.1916 167.054 95.1403 170.27 93.1407L170.279 93.135L170.288 93.1293C173.641 91.0856 176.185 88.337 177.958 84.8472C179.749 81.3207 180.661 77.4047 180.661 73.0552C180.661 68.3984 179.708 64.3971 177.874 60.9818L177.861 60.9571L177.848 60.9321C176.072 57.4364 173.565 54.7318 170.3 52.7677C167.079 50.8295 163.169 49.8084 158.47 49.8084ZM244.709 48.5437C248.823 46.0681 253.642 44.8824 259.066 44.8824C264.49 44.8824 269.309 46.0681 273.423 48.5437C277.487 50.9886 280.623 54.3813 282.808 58.6714C285.073 62.9005 286.169 67.7181 286.169 73.0552C286.169 78.1215 285.1 82.8123 282.93 87.0832C280.744 91.3881 277.569 94.817 273.444 97.3336C269.327 99.8906 264.5 101.118 259.066 101.118C253.628 101.118 248.798 99.8885 244.678 97.3273C240.625 94.8071 237.494 91.3782 235.312 87.0832C233.142 82.8123 232.073 78.1215 232.073 73.0552C232.073 67.7247 233.13 62.9131 235.317 58.6867C237.502 54.3893 240.641 50.9915 244.709 48.5437ZM259.066 49.8084C254.368 49.8084 250.457 50.8295 247.236 52.7677C243.972 54.7318 241.464 57.4364 239.689 60.9321L239.684 60.9406L239.68 60.9491C237.908 64.3712 236.985 68.3845 236.985 73.0552C236.985 77.4047 237.897 81.3207 239.689 84.8472C241.468 88.3498 243.985 91.1001 247.267 93.1407C250.483 95.1403 254.382 96.1916 259.066 96.1916C263.75 96.1916 267.649 95.1403 270.865 93.1407L270.875 93.135L270.884 93.1293C274.237 91.0856 276.781 88.337 278.554 84.8472C280.345 81.3207 281.257 77.4047 281.257 73.0552C281.257 68.3984 280.303 64.3971 278.469 60.9818L278.456 60.9571L278.444 60.9321C276.668 57.4364 274.16 54.7318 270.896 52.7677C267.675 50.8295 263.765 49.8084 259.066 49.8084ZM428.203 45.1031H445.623C450.051 45.1031 453.834 46.504 456.712 49.4655C459.656 52.3426 461.062 56.0937 461.062 60.4761C461.062 64.9235 459.661 68.722 456.698 71.6103C453.814 74.4958 450.035 75.8492 445.623 75.8492H428.203V45.1031ZM433.115 50.0291V70.9232H445.623C448.979 70.9232 451.43 69.9269 453.238 68.1136L453.252 68.1002L453.265 68.0871C455.135 66.269 456.15 63.8195 456.15 60.4761C456.15 57.2215 455.145 54.803 453.265 52.9756L453.238 52.9492L453.212 52.922C451.399 51.0471 448.957 50.0291 445.623 50.0291H433.115ZM592.222 45.2134H599.87L611.485 80.9249H580.863L592.222 45.2134ZM595.811 50.1394L587.586 75.999H604.716L596.306 50.1394H595.811ZM336.74 46.6479H351.96C359.978 46.6479 366.59 48.8842 371.485 53.6229C376.417 58.3235 378.732 64.8883 378.732 72.9448C378.732 80.6853 376.39 87.1558 371.536 92.1058C366.646 97.0921 360.016 99.4625 351.96 99.4625H336.74V46.6479ZM341.652 51.5739V94.5365H351.96C359.014 94.5365 364.267 92.4931 368.033 88.652C371.835 84.7747 373.82 79.6224 373.82 72.9448C373.82 65.8528 371.81 60.7245 368.094 57.1868L368.086 57.1793L368.078 57.1718C364.318 53.5286 359.049 51.5739 351.96 51.5739H341.652Z" fill="white"/>
</g>
<defs>
<filter id="filter0_ddddii_223_3969" x="0" y="0" width="739" height="146" filterUnits="userSpaceOnUse" color-interpolation-filters="sRGB">
<feFlood flood-opacity="0" result="BackgroundImageFix"/>
<feColorMatrix in="SourceAlpha" type="matrix" values="0 0 0 0 0 0 0 0 0 0 0 0 0 0 0 0 0 0 127 0" result="hardAlpha"/>
<feOffset dy="-4"/>
<feGaussianBlur stdDeviation="12"/>
<feComposite in2="hardAlpha" operator="out"/>
<feColorMatrix type="matrix" values="0 0 0 0 0.282353 0 0 0 0 0.14902 0 0 0 0 0.803922 0 0 0 1 0"/>
<feBlend mode="normal" in2="BackgroundImageFix" result="effect1_dropShadow_223_3969"/>
<feColorMatrix in="SourceAlpha" type="matrix" values="0 0 0 0 0 0 0 0 0 0 0 0 0 0 0 0 0 0 127 0" result="hardAlpha"/>
<feOffset dx="-3" dy="4"/>
<feGaussianBlur stdDeviation="3.5"/>
<feComposite in2="hardAlpha" operator="out"/>
<feColorMatrix type="matrix" values="0 0 0 0 0.394332 0 0 0 0 0.22375 0 0 0 0 0.745833 0 0 0 1 0"/>
<feBlend mode="normal" in2="effect1_dropShadow_223_3969" result="effect2_dropShadow_223_3969"/>
<feColorMatrix in="SourceAlpha" type="matrix" values="0 0 0 0 0 0 0 0 0 0 0 0 0 0 0 0 0 0 127 0" result="hardAlpha"/>
<feOffset dy="4"/>
<feGaussianBlur stdDeviation="12"/>
<feComposite in2="hardAlpha" operator="out"/>
<feColorMatrix type="matrix" values="0 0 0 0 0.635294 0 0 0 0 0.435294 0 0 0 0 0.909804 0 0 0 1 0"/>
<feBlend mode="normal" in2="effect2_dropShadow_223_3969" result="effect3_dropShadow_223_3969"/>
<feColorMatrix in="SourceAlpha" type="matrix" values="0 0 0 0 0 0 0 0 0 0 0 0 0 0 0 0 0 0 127 0" result="hardAlpha"/>
<feOffset dy="4"/>
<feGaussianBlur stdDeviation="5"/>
<feComposite in2="hardAlpha" operator="out"/>
<feColorMatrix type="matrix" values="0 0 0 0 0.419608 0 0 0 0 0.298039 0 0 0 0 0.745098 0 0 0 0.8 0"/>
<feBlend mode="normal" in2="effect3_dropShadow_223_3969" result="effect4_dropShadow_223_3969"/>
<feBlend mode="normal" in="SourceGraphic" in2="effect4_dropShadow_223_3969" result="shape"/>
<feColorMatrix in="SourceAlpha" type="matrix" values="0 0 0 0 0 0 0 0 0 0 0 0 0 0 0 0 0 0 127 0" result="hardAlpha"/>
<feOffset/>
<feGaussianBlur stdDeviation="1"/>
<feComposite in2="hardAlpha" operator="arithmetic" k2="-1" k3="1"/>
<feColorMatrix type="matrix" values="0 0 0 0 0.295365 0 0 0 0 0.099375 0 0 0 0 0.883333 0 0 0 1 0"/>
<feBlend mode="normal" in2="shape" result="effect5_innerShadow_223_3969"/>
<feColorMatrix in="SourceAlpha" type="matrix" values="0 0 0 0 0 0 0 0 0 0 0 0 0 0 0 0 0 0 127 0" result="hardAlpha"/>
<feOffset dy="1"/>
<feGaussianBlur stdDeviation="2"/>
<feComposite in2="hardAlpha" operator="arithmetic" k2="-1" k3="1"/>
<feColorMatrix type="matrix" values="0 0 0 0 0.380392 0 0 0 0 0.25098 0 0 0 0 0.647059 0 0 0 1 0"/>
<feBlend mode="normal" in2="effect5_innerShadow_223_3969" result="effect6_innerShadow_223_3969"/>
</filter>
</defs>
</svg>
