<svg width="322" height="45" viewBox="0 0 322 45" fill="none" xmlns="http://www.w3.org/2000/svg">
<g id="Group 76">
<g id="solana-sol-logo-horizontal 1">
<path id="Vector" d="M65.1642 23.8648H70.9379C71.7498 23.8648 72.4076 24.5296 72.4076 25.3414C72.4076 26.1603 71.7498 26.8181 70.9379 26.8181H63.9745C63.8625 26.8181 63.7575 26.8601 63.6806 26.9301L61.581 28.7427C61.2591 29.0226 61.4551 29.5475 61.875 29.5475H70.588C70.588 29.5475 70.595 29.5475 70.595 29.5405C70.595 29.5335 70.602 29.5335 70.602 29.5335C70.714 29.5405 70.819 29.5475 70.9309 29.5475C73.2404 29.5475 75.116 27.6649 75.116 25.3414C75.116 23.1369 73.4294 21.3243 71.2739 21.1494C71.2739 21.1494 71.2669 21.1494 71.2669 21.1424C71.2669 21.1354 71.2669 21.1354 71.2599 21.1354H65.0453C64.2334 21.1354 63.5756 20.4705 63.5756 19.6587C63.5756 18.8399 64.2334 18.182 65.0453 18.182H71.9947C72.1067 18.182 72.2187 18.14 72.3026 18.0631L74.2552 16.2505C74.5631 15.9635 74.3602 15.4526 73.9473 15.4526H65.1642C65.1292 15.4526 65.0872 15.4526 65.0523 15.4526C62.7428 15.4526 60.8672 17.3352 60.8672 19.6587C60.8672 21.9822 62.7428 23.8648 65.0523 23.8648C65.0872 23.8648 65.1222 23.8648 65.1642 23.8648Z" fill="#7352B7"/>
<path id="Vector_2" d="M98.7713 15.4457C98.5194 15.4457 98.3164 15.6487 98.3164 15.9076V29.0927C98.3164 29.3446 98.5194 29.5546 98.7713 29.5546H109.339C109.465 29.5546 109.584 29.4986 109.675 29.4076L110.998 27.9869C111.271 27.693 111.068 27.2101 110.662 27.2101H101.438C101.186 27.2101 100.983 27.0071 100.983 26.7482V15.9006C100.983 15.6487 100.78 15.4387 100.528 15.4387H98.7713V15.4457Z" fill="#7352B7"/>
<path id="Vector_3" fill-rule="evenodd" clip-rule="evenodd" d="M81.8461 15.4456C81.8461 15.4526 81.8461 15.4526 81.8461 15.4456C80.4954 15.5085 79.4106 16.5933 79.3477 17.944V26.811C79.3477 26.846 79.3477 26.888 79.3477 26.923C79.3477 28.3297 80.4534 29.4774 81.8461 29.5334H91.434C92.8197 29.4704 93.9324 28.3227 93.9324 26.923C93.9324 26.888 93.9324 26.846 93.9324 26.811V17.951C93.8764 16.6003 92.7917 15.5085 91.441 15.4526H81.8461V15.4456ZM83.6377 17.951C83.6307 17.951 83.6307 17.951 83.6377 17.951C82.7909 17.986 82.112 18.6718 82.077 19.5257V25.1034C82.077 25.1244 82.077 25.1524 82.077 25.1734C82.077 26.0552 82.7699 26.783 83.6377 26.818H89.6494C90.5172 26.783 91.21 26.0552 91.21 25.1734C91.21 25.1524 91.21 25.1244 91.21 25.1034V19.5257C91.175 18.6718 90.4962 17.993 89.6494 17.951H83.6377Z" fill="#7352B7"/>
<path id="Vector_4" fill-rule="evenodd" clip-rule="evenodd" d="M126.357 29.0927C126.357 29.3446 126.56 29.5546 126.812 29.5546H128.604C128.856 29.5546 129.058 29.3516 129.058 29.0927V18.1821C129.058 18.1471 129.058 18.1051 129.058 18.0701C129.058 16.6635 127.96 15.5157 126.588 15.4597H117.385C117.35 15.4597 117.308 15.4597 117.273 15.4597C115.845 15.4597 114.691 16.6285 114.691 18.0771C114.691 18.1121 114.691 18.1541 114.691 18.1891V29.0997C114.691 29.3516 114.894 29.5616 115.146 29.5616H116.937C117.189 29.5616 117.392 29.3586 117.392 29.0997V24.5577C117.392 24.3058 117.595 24.0958 117.847 24.0958H125.923C126.175 24.0958 126.378 24.2988 126.378 24.5577V29.0927H126.357ZM117.378 21.5834V19.3159C117.378 18.4341 118.085 17.7202 118.953 17.7202H124.789C125.657 17.7202 126.364 18.4341 126.364 19.3159V21.5834C126.364 21.8353 126.161 22.0453 125.909 22.0453H117.833C117.581 22.0453 117.378 21.8423 117.378 21.5834Z" fill="#7352B7"/>
<path id="Vector_5" fill-rule="evenodd" clip-rule="evenodd" d="M164.181 29.5545C163.929 29.5545 163.726 29.3515 163.726 29.0926V24.5506C163.726 24.2987 163.523 24.0887 163.271 24.0887H155.104C154.852 24.0887 154.649 24.2917 154.649 24.5506V29.0926C154.649 29.3445 154.446 29.5545 154.194 29.5545H152.388C152.137 29.5545 151.934 29.3515 151.934 29.0926V18.182C151.934 18.147 151.934 18.105 151.934 18.0701C151.934 16.6284 153.102 15.4526 154.544 15.4526C154.579 15.4526 154.621 15.4526 154.656 15.4526H163.957C165.343 15.5156 166.455 16.6634 166.455 18.0631C166.455 18.098 166.455 18.14 166.455 18.175V29.0856C166.455 29.3376 166.252 29.5475 166 29.5475H164.181V29.5545ZM154.649 19.3158V21.5833C154.649 21.8352 154.852 22.0452 155.104 22.0452H163.271C163.523 22.0452 163.726 21.8422 163.726 21.5833V19.3158C163.726 18.434 163.012 17.7201 162.137 17.7201H156.238C155.356 17.7201 154.649 18.434 154.649 19.3158Z" fill="#7352B7"/>
<path id="Vector_6" d="M135.805 15.4456C135.938 15.4456 136.064 15.5015 136.148 15.6065L144.182 25.1874C144.455 25.5093 144.98 25.3134 144.98 24.8865V15.9075C144.98 15.6555 145.183 15.4456 145.435 15.4456H147.226C147.478 15.4456 147.681 15.6485 147.681 15.9075V29.0925C147.681 29.3445 147.478 29.5544 147.226 29.5544H145.001C144.994 29.5544 144.987 29.5474 144.987 29.5404C144.987 29.5334 144.987 29.5334 144.98 29.5264L136.805 20.0155C136.533 19.6936 136.008 19.8966 136.008 20.3165V29.0995C136.008 29.3515 135.805 29.5614 135.553 29.5614H133.747C133.495 29.5614 133.292 29.3585 133.292 29.0995V15.9075C133.292 15.6555 133.495 15.4456 133.747 15.4456H135.805Z" fill="#7352B7"/>
<path id="Vector_7" d="M19.2028 30.0374C19.4267 29.8135 19.7276 29.6875 20.0426 29.6875H49.1911C49.723 29.6875 49.9889 30.3314 49.611 30.7023L43.8513 36.462C43.6273 36.6859 43.3264 36.8119 43.0115 36.8119H13.863C13.3311 36.8119 13.0651 36.1681 13.443 35.7971L19.2028 30.0374Z" fill="#7352B7"/>
<path id="Vector_8" d="M19.2028 8.53791C19.4267 8.31396 19.7276 8.18799 20.0426 8.18799H49.1911C49.723 8.18799 49.9889 8.83185 49.611 9.20276L43.8513 14.9555C43.6273 15.1794 43.3264 15.3054 43.0115 15.3054H13.863C13.3311 15.3054 13.0651 14.6615 13.443 14.2906L19.2028 8.53791Z" fill="#7352B7"/>
<path id="Vector_9" d="M43.8513 19.2178C43.6273 18.9939 43.3264 18.8679 43.0115 18.8679H13.863C13.3311 18.8679 13.0651 19.5118 13.443 19.8827L19.2028 25.6354C19.4267 25.8594 19.7276 25.9853 20.0426 25.9853H49.1911C49.723 25.9853 49.9889 25.3415 49.611 24.9706L43.8513 19.2178Z" fill="#7352B7"/>
</g>
<path id="meema_wrong_logo" fill-rule="evenodd" clip-rule="evenodd" d="M236 32H239.5V20L245 27.5L250.5 20V32H254.5V14H250.5L245 22L240 14H236V32ZM260.277 24.1501H266.052C265.885 23.2501 265.585 22.5668 265.152 22.1001C264.735 21.6334 264.093 21.4001 263.227 21.4001C262.66 21.4001 262.185 21.5001 261.802 21.7001C261.435 21.8834 261.135 22.1168 260.902 22.4001C260.685 22.6834 260.527 22.9834 260.427 23.3001C260.343 23.6168 260.293 23.9001 260.277 24.1501ZM269.602 26.4001H260.277C260.327 27.5501 260.618 28.3834 261.152 28.9001C261.685 29.4168 262.452 29.6751 263.452 29.6751C264.168 29.6751 264.785 29.5001 265.302 29.1501C265.818 28.7834 266.135 28.4001 266.252 28.0001H269.377C268.877 29.5501 268.11 30.6584 267.077 31.3251C266.043 31.9918 264.793 32.3251 263.327 32.3251C262.31 32.3251 261.393 32.1668 260.577 31.8501C259.76 31.5168 259.068 31.0501 258.502 30.4501C257.935 29.8501 257.493 29.1334 257.177 28.3001C256.877 27.4668 256.727 26.5501 256.727 25.5501C256.727 24.5834 256.885 23.6834 257.202 22.8501C257.518 22.0168 257.968 21.3001 258.552 20.7001C259.135 20.0834 259.827 19.6001 260.627 19.2501C261.443 18.9001 262.343 18.7251 263.327 18.7251C264.427 18.7251 265.385 18.9418 266.202 19.3751C267.018 19.7918 267.685 20.3584 268.202 21.0751C268.735 21.7918 269.118 22.6084 269.352 23.5251C269.585 24.4418 269.668 25.4001 269.602 26.4001ZM274.632 24.1501H280.407C280.24 23.2501 279.94 22.5668 279.507 22.1001C279.09 21.6334 278.449 21.4001 277.582 21.4001C277.015 21.4001 276.54 21.5001 276.157 21.7001C275.79 21.8834 275.49 22.1168 275.257 22.4001C275.04 22.6834 274.882 22.9834 274.782 23.3001C274.699 23.6168 274.649 23.9001 274.632 24.1501ZM283.957 26.4001H274.632C274.682 27.5501 274.974 28.3834 275.507 28.9001C276.04 29.4168 276.807 29.6751 277.807 29.6751C278.524 29.6751 279.14 29.5001 279.657 29.1501C280.174 28.7834 280.49 28.4001 280.607 28.0001H283.732C283.232 29.5501 282.465 30.6584 281.432 31.3251C280.399 31.9918 279.149 32.3251 277.682 32.3251C276.665 32.3251 275.749 32.1668 274.932 31.8501C274.115 31.5168 273.424 31.0501 272.857 30.4501C272.29 29.8501 271.849 29.1334 271.532 28.3001C271.232 27.4668 271.082 26.5501 271.082 25.5501C271.082 24.5834 271.24 23.6834 271.557 22.8501C271.874 22.0168 272.324 21.3001 272.907 20.7001C273.49 20.0834 274.182 19.6001 274.982 19.2501C275.799 18.9001 276.699 18.7251 277.682 18.7251C278.782 18.7251 279.74 18.9418 280.557 19.3751C281.374 19.7918 282.04 20.3584 282.557 21.0751C283.09 21.7918 283.474 22.6084 283.707 23.5251C283.94 24.4418 284.024 25.4001 283.957 26.4001ZM286.162 19.0751V32.0001H289.713V24.5001C289.713 23.8668 289.804 23.3584 289.988 22.9751C290.171 22.5751 290.388 22.2751 290.638 22.0751C290.904 21.8584 291.171 21.7168 291.438 21.6501C291.721 21.5668 291.946 21.5251 292.113 21.5251C292.679 21.5251 293.104 21.6251 293.388 21.8251C293.688 22.0084 293.896 22.2584 294.013 22.5751C294.146 22.8918 294.221 23.2418 294.238 23.6251C294.254 23.9918 294.263 24.3668 294.263 24.7501V32.0001H297.813V24.8001C297.813 24.4001 297.838 24.0084 297.888 23.6251C297.954 23.2251 298.071 22.8751 298.238 22.5751C298.421 22.2584 298.663 22.0084 298.963 21.8251C299.279 21.6251 299.688 21.5251 300.188 21.5251C300.688 21.5251 301.079 21.6084 301.363 21.7751C301.663 21.9418 301.888 22.1668 302.038 22.4501C302.188 22.7334 302.279 23.0668 302.312 23.4501C302.346 23.8334 302.363 24.2418 302.363 24.6751V32.0001H305.913V23.3501C305.913 22.5168 305.796 21.8084 305.562 21.2251C305.329 20.6251 305.004 20.1418 304.588 19.7751C304.171 19.4084 303.671 19.1418 303.088 18.9751C302.504 18.8084 301.871 18.7251 301.188 18.7251C300.288 18.7251 299.504 18.9418 298.838 19.3751C298.188 19.8084 297.671 20.3084 297.288 20.8751C296.938 20.0751 296.421 19.5168 295.738 19.2001C295.071 18.8834 294.329 18.7251 293.513 18.7251C292.663 18.7251 291.904 18.9084 291.238 19.2751C290.588 19.6418 290.029 20.1584 289.562 20.8251H289.513V19.0751H286.162ZM314.25 32.75C312.583 32.75 310.292 32.1833 309.375 31.05C308.458 29.9 308 28.1667 308 25.85C308 23.5833 308.458 21.875 309.375 20.725C310.308 19.575 312.542 19 314.075 19C314.958 19 315.733 19.1583 316.4 19.475C317.083 19.7917 317.617 20.2417 318 20.825H318.15V19.375H321.575V32.45H318.65L318.425 30.725H318.25C317.833 31.3917 317.275 31.9 316.575 32.25C315.875 32.5833 315.1 32.75 314.25 32.75ZM315.35 29.775C317.217 29.775 318.15 28.55 318.15 26.1V25.7C318.15 23.2167 317.217 21.975 315.35 21.975C315.061 21.9789 314.78 22.0067 314.512 22.0508C312.784 22.3351 311.525 23.8986 311.525 25.65V26.1C311.525 26.455 311.55 26.8148 311.589 27.1563C311.735 28.4079 312.49 29.4756 313.736 29.6582C314.313 29.7427 314.913 29.775 315.35 29.775Z" fill="#7352B7"/>
</g>
</svg>
