<svg width="357" height="321" viewBox="0 0 357 321" fill="none" xmlns="http://www.w3.org/2000/svg">
<path d="M212.004 14.1488L115.032 86.9925C115.804 86.4096 116.608 85.8586 117.425 85.3116L118.098 84.9232C118.752 84.5455 119.416 84.1625 120.089 83.7741C120.229 83.6932 120.369 83.6122 120.518 83.5259C121.322 83.062 122.126 82.598 123.002 82.2167C123.207 82.098 123.422 81.9739 123.637 81.8499C124.3 81.5297 124.977 81.2135 125.674 80.9107C125.908 80.7758 126.168 80.6876 126.427 80.5754C127.333 80.202 128.244 79.8379 129.19 79.4911L129.34 79.4048C130.092 79.1324 130.849 78.8695 131.627 78.6197C131.912 78.5301 132.202 78.4499 132.477 78.3657C133.037 78.1919 133.603 78.0274 134.168 77.863C134.51 77.7651 134.863 77.6859 135.243 77.5664C135.767 77.4383 136.323 77.2793 136.834 77.1713C137.205 77.0813 137.582 77.0006 137.941 76.9308C138.299 76.8609 138.981 76.704 139.516 76.5946C140.05 76.4851 140.299 76.4412 140.696 76.3738C141.094 76.3065 141.758 76.1844 142.309 76.103C142.86 76.0216 143.109 75.9777 143.511 75.9197C143.914 75.8617 144.656 75.7446 145.175 75.6941L146.353 75.5751L148.112 75.4067C148.506 75.3781 148.905 75.3349 149.3 75.3064C149.944 75.258 150.585 75.2243 151.241 75.1947C151.665 75.174 152.093 75.1387 152.523 75.1274C153.743 75.0831 154.969 75.0482 156.211 75.0414C156.646 75.0394 157.082 75.0616 157.485 75.0906C158.264 75.1018 159.052 75.1077 159.842 75.1376C160.365 75.1594 160.9 75.1998 161.428 75.231C161.957 75.2621 162.815 75.3024 163.505 75.3529L164.959 75.4976C165.683 75.5653 166.426 75.6222 167.161 75.7086C168.739 75.8943 170.319 76.1282 171.895 76.3768L173.126 76.5881C174.519 76.8429 175.923 77.1163 177.332 77.3991L177.87 77.5118C179.301 77.832 180.737 78.1615 182.124 78.5568L183.279 78.8742C184.331 79.164 185.37 79.4739 186.414 79.7931L187.7 80.2089C188.913 80.605 190.117 81.0065 191.318 81.4468L191.91 81.653C193.29 82.1647 194.646 82.702 195.99 83.2595C196.798 83.6025 197.626 83.9347 198.433 84.3407L198.865 84.5275C199.859 84.9754 200.839 85.4434 201.825 85.9208L202.647 86.3307C203.359 86.6795 204.067 87.0431 204.766 87.412L205.705 87.9164L207.35 88.8231L209.027 89.7859L210.477 90.6561L212.094 91.666L213.507 92.5818L215.079 93.6428L216.451 94.5949L217.963 95.703L219.29 96.7061L220.736 97.852C221.172 98.198 221.594 98.5401 222.012 98.8969C222.43 99.2537 222.954 99.6863 223.408 100.084C223.862 100.483 224.229 100.794 224.628 101.162L225.964 102.396L227.122 103.497L228.394 104.793L229.482 105.922L230.697 107.251L231.729 108.412L232.875 109.793L233.825 110.964L234.903 112.398L235.776 113.588C236.073 114.102 236.459 114.576 236.784 115.074C237.109 115.572 237.324 115.859 237.58 116.259L238.492 117.838C238.724 118.24 238.951 118.632 239.177 119.025C239.495 119.576 239.814 120.128 240.08 120.696L240.711 121.79C241.056 122.388 241.299 123.045 241.588 123.676C241.761 123.975 241.892 124.31 242.043 124.659C242.453 125.606 242.835 126.569 243.183 127.539C243.413 128.153 243.625 128.779 243.822 129.4C244.019 130.022 244.205 130.624 244.372 131.238L212.004 14.1488Z" fill="url(#paint0_linear_223_2365)"/>
<path d="M208.217 16.9971C177.158 40.3274 146.097 63.6596 115.033 86.9935C115.805 86.4105 116.608 85.8596 117.426 85.3126L118.099 84.9241C118.753 84.5465 119.416 84.1635 120.089 83.775C120.229 83.6941 120.37 83.6132 120.519 83.5269C121.323 83.0629 122.126 82.599 123.002 82.2177C123.208 82.099 123.423 81.9749 123.638 81.8508C124.3 81.5307 124.977 81.2145 125.675 80.9116C125.908 80.7767 126.169 80.6886 126.428 80.5764C127.334 80.2029 128.245 79.8389 129.191 79.4921L129.34 79.4057C130.092 79.1334 130.85 78.8704 131.628 78.6207C131.913 78.5311 132.203 78.4508 132.478 78.3666C133.038 78.1928 133.603 78.0284 134.169 77.8639C134.511 77.766 134.864 77.6869 135.243 77.5674C135.767 77.4393 136.323 77.2802 136.834 77.1722C137.206 77.0822 137.583 77.0016 137.941 76.9317C138.3 76.8619 138.981 76.705 139.516 76.5955C140.051 76.4861 140.3 76.4421 140.697 76.3748C141.094 76.3074 141.759 76.1854 142.31 76.104C142.861 76.0225 143.11 75.9786 143.512 75.9206C143.915 75.8626 144.657 75.7455 145.176 75.695L146.353 75.576L148.112 75.4076C148.507 75.3791 148.906 75.3358 149.3 75.3073C149.945 75.2589 150.586 75.2253 151.242 75.1956C151.666 75.175 152.094 75.1396 152.523 75.1283C153.744 75.0841 154.97 75.0492 156.211 75.0423C156.646 75.0404 157.083 75.0625 157.486 75.0915C158.265 75.1028 159.053 75.1086 159.843 75.1386C160.366 75.1603 160.9 75.2008 161.429 75.2319C161.958 75.263 162.816 75.3033 163.505 75.3538L164.959 75.4985C165.684 75.5662 166.427 75.6232 167.162 75.7095C168.739 75.8952 170.319 76.1291 171.896 76.3777L173.127 76.589C174.52 76.8438 175.923 77.1172 177.332 77.4L177.871 77.5127C179.302 77.8329 180.738 78.1624 182.125 78.5578L183.28 78.8752C184.332 79.1649 185.37 79.4748 186.414 79.794L187.701 80.2098C188.914 80.6059 190.117 81.0074 191.318 81.4477L191.911 81.6539C193.29 82.1656 194.647 82.703 195.99 83.2604C196.799 83.6034 197.626 83.9356 198.434 84.3416L198.865 84.5284C199.859 84.9763 200.84 85.4443 201.825 85.9217L202.543 86.2799C205.279 63.2461 205.06 39.8628 208.217 16.9971Z" fill="url(#paint1_linear_223_2365)"/>
<g filter="url(#filter0_d_223_2365)">
<path d="M189.318 80.7227C149.838 67.2751 110.303 78.4828 101.013 105.756C91.7236 133.029 116.197 166.039 155.677 179.487C195.156 192.934 234.691 181.727 243.981 154.454C253.271 127.181 228.797 94.1703 189.318 80.7227Z" fill="url(#paint2_linear_223_2365)"/>
</g>
<path opacity="0.8" d="M101.826 132.741C112.848 163.118 153.43 186.559 192.452 185.072C231.475 183.585 254.198 157.795 243.166 127.423C232.135 97.0514 191.568 73.6149 152.54 75.0922C113.512 76.5695 90.8086 102.373 101.826 132.741ZM152.571 75.8589C187.136 74.5916 223.19 92.6722 238.349 118.929C239.973 121.73 241.348 124.667 242.458 127.708C247.015 140.239 245.797 152.654 239.07 162.667C230.359 175.633 213.316 183.554 192.427 184.339C157.863 185.606 121.803 167.516 106.649 141.269C105.011 138.456 103.624 135.505 102.504 132.449C97.957 119.912 99.1597 107.493 105.902 97.4837C114.665 84.5005 131.677 76.6345 152.571 75.8589Z" fill="url(#paint3_linear_223_2365)" style="mix-blend-mode:overlay"/>
<defs>
<filter id="filter0_d_223_2365" x="0" y="0" width="357" height="320.236" filterUnits="userSpaceOnUse" color-interpolation-filters="sRGB">
<feFlood flood-opacity="0" result="BackgroundImageFix"/>
<feColorMatrix in="SourceAlpha" type="matrix" values="0 0 0 0 0 0 0 0 0 0 0 0 0 0 0 0 0 0 127 0" result="hardAlpha"/>
<feMorphology radius="5" operator="dilate" in="SourceAlpha" result="effect1_dropShadow_223_2365"/>
<feOffset dx="6" dy="30"/>
<feGaussianBlur stdDeviation="50"/>
<feComposite in2="hardAlpha" operator="out"/>
<feColorMatrix type="matrix" values="0 0 0 0 0.958333 0 0 0 0 0.939167 0 0 0 0 0.926389 0 0 0 1 0"/>
<feBlend mode="normal" in2="BackgroundImageFix" result="effect1_dropShadow_223_2365"/>
<feBlend mode="normal" in="SourceGraphic" in2="effect1_dropShadow_223_2365" result="shape"/>
</filter>
<linearGradient id="paint0_linear_223_2365" x1="245.038" y1="71.8609" x2="197.869" y2="74.0636" gradientUnits="userSpaceOnUse">
<stop stop-color="#EFACAF"/>
<stop offset="1" stop-color="#F2E0E0"/>
</linearGradient>
<linearGradient id="paint1_linear_223_2365" x1="156.815" y1="47.4089" x2="178.724" y2="68.2867" gradientUnits="userSpaceOnUse">
<stop stop-color="#DEB2B3" stop-opacity="0.72"/>
<stop offset="0.01" stop-color="#F9C5C6" stop-opacity="0.49"/>
<stop offset="0.15" stop-color="#F9C5C6" stop-opacity="0.31"/>
<stop offset="0.28" stop-color="#F9C5C6" stop-opacity="0.18"/>
<stop offset="0.41" stop-color="#F9C5C6" stop-opacity="0.08"/>
<stop offset="0.53" stop-color="#F9C5C6" stop-opacity="0.02"/>
<stop offset="0.62" stop-color="#F9C5C6" stop-opacity="0.21"/>
</linearGradient>
<linearGradient id="paint2_linear_223_2365" x1="115.479" y1="156.394" x2="208.062" y2="74.071" gradientUnits="userSpaceOnUse">
<stop stop-color="#FAEDF4"/>
<stop offset="0.380301" stop-color="#F2DFDF"/>
<stop offset="0.724849" stop-color="#EEE1E4"/>
<stop offset="1" stop-color="#E5E5F1"/>
</linearGradient>
<linearGradient id="paint3_linear_223_2365" x1="-15094.8" y1="-61536.7" x2="-4144.39" y2="-65299.7" gradientUnits="userSpaceOnUse">
<stop stop-color="#FEEAEA"/>
<stop offset="0.09" stop-color="#FEE9E9" stop-opacity="0.97"/>
<stop offset="0.22" stop-color="#FEE6E6" stop-opacity="0.89"/>
<stop offset="0.38" stop-color="#FEE0E0" stop-opacity="0.75"/>
<stop offset="0.57" stop-color="#FED9D9" stop-opacity="0.56"/>
<stop offset="0.77" stop-color="#FDCFD0" stop-opacity="0.31"/>
<stop offset="0.99" stop-color="#FDC4C5" stop-opacity="0.02"/>
<stop offset="1" stop-color="#FDC3C4" stop-opacity="0"/>
</linearGradient>
</defs>
</svg>
