<svg width="1409" height="801" viewBox="0 0 1409 801" fill="none" xmlns="http://www.w3.org/2000/svg">
<g id="background_NY">
<g id="Group 1825" opacity="0.02">
<path id="path462" d="M671.25 669.874H559.144V223.641H671.25V669.874Z" fill="#D85081"/>
<path id="path464" d="M652.939 379.172H577.468V191.65H652.939V379.172Z" fill="#D85081"/>
<path id="path466" d="M636.126 275.369H594.262V171.357H636.126V275.369Z" fill="#D85081"/>
<path id="path468" d="M600.948 224.806H629.478V153.918H600.948V224.806Z" fill="#D85081"/>
<path id="path470" d="M617.08 193.936H620.177V123.052H617.08V193.936Z" fill="#D85081"/>
<path id="path472" d="M610.222 169.433H613.316V98.5483H610.222V169.433Z" fill="#D85081"/>
<path id="path474" d="M556.16 227.251H674.25V222.498H556.16V227.251Z" fill="#D85081"/>
<path id="path476" d="M574.715 193.936H655.692V189.36H574.715V193.936Z" fill="#D85081"/>
<path id="path478" d="M592.522 172.943H639.192V169.435H592.522V172.943Z" fill="#D85081"/>
<path id="path480" d="M646 218.909H642.493V199.26H646V218.909Z" fill="#D85081"/>
<path id="path482" d="M636.297 218.909H636.142V199.26H636.297V218.909Z" fill="#D85081"/>
<path id="path484" d="M636.126 218.909H632.771V199.26H636.126V218.909Z" fill="#D85081"/>
<path id="path486" d="M626.579 218.909H623.071V199.26H626.579V218.909Z" fill="#D85081"/>
<path id="path488" d="M616.876 218.909H613.368V199.26H616.876V218.909Z" fill="#D85081"/>
<path id="path490" d="M607.161 218.909H603.65V199.26H607.161V218.909Z" fill="#D85081"/>
<path id="path492" d="M594.274 218.909H593.954V199.26H594.274V218.909Z" fill="#D85081"/>
<path id="path494" d="M597.458 218.909H594.272V199.26H597.458V218.909Z" fill="#D85081"/>
<path id="path496" d="M587.755 218.909H584.248V199.26H587.755V218.909Z" fill="#D85081"/>
<path id="path498" d="M652.937 264.743H661.415V241.433H652.937V264.743Z" fill="#D85081"/>
<path id="path500" d="M644.618 264.745H636.138V241.432H644.618V264.745Z" fill="#D85081"/>
<path id="path502" d="M619.355 264.743H627.833V241.433H619.355V264.743Z" fill="#D85081"/>
<path id="path504" d="M602.569 264.743H611.047V241.433H602.569V264.743Z" fill="#D85081"/>
<path id="path506" d="M585.788 264.743H594.263V241.433H585.788V264.743Z" fill="#D85081"/>
<path id="path508" d="M568.984 264.743H577.462V241.433H568.984V264.743Z" fill="#D85081"/>
<path id="path510" d="M652.937 301.084H661.415V277.771H652.937V301.084Z" fill="#D85081"/>
<path id="path512" d="M636.141 301.084H644.618V277.771H636.141V301.084Z" fill="#D85081"/>
<path id="path514" d="M619.355 301.084H627.833V277.771H619.355V301.084Z" fill="#D85081"/>
<path id="path516" d="M611.047 301.084H602.569V277.771H611.047V301.084Z" fill="#D85081"/>
<path id="path518" d="M585.788 301.084H594.263V277.771H585.788V301.084Z" fill="#D85081"/>
<path id="path520" d="M568.984 301.084H577.462V277.771H568.984V301.084Z" fill="#D85081"/>
<path id="path522" d="M652.937 337.417H661.415V314.107H652.937V337.417Z" fill="#D85081"/>
<path id="path524" d="M636.141 337.417H644.618V314.107H636.141V337.417Z" fill="#D85081"/>
<path id="path526" d="M619.355 337.417H627.833V314.107H619.355V337.417Z" fill="#D85081"/>
<path id="path528" d="M602.569 337.417H611.047V314.107H602.569V337.417Z" fill="#D85081"/>
<path id="path530" d="M594.263 337.417H585.788V314.107H594.263V337.417Z" fill="#D85081"/>
<path id="path532" d="M577.462 337.417H568.984V314.107H577.462V337.417Z" fill="#D85081"/>
<path id="path534" d="M661.415 373.758H652.937V350.444H661.415V373.758Z" fill="#D85081"/>
<path id="path536" d="M636.141 373.758H644.618V350.445H636.141V373.758Z" fill="#D85081"/>
<path id="path538" d="M619.355 373.758H627.833V350.445H619.355V373.758Z" fill="#D85081"/>
<path id="path540" d="M602.569 373.758H611.047V350.445H602.569V373.758Z" fill="#D85081"/>
<path id="path542" d="M585.788 373.758H594.263V350.445H585.788V373.758Z" fill="#D85081"/>
<path id="path544" d="M568.984 373.758H577.462V350.445H568.984V373.758Z" fill="#D85081"/>
<path id="path546" d="M652.937 410.095H661.415V386.782H652.937V410.095Z" fill="#D85081"/>
<path id="path548" d="M644.618 410.095H636.138V386.783H644.618V410.095Z" fill="#D85081"/>
<path id="path550" d="M619.355 410.095H627.833V386.782H619.355V410.095Z" fill="#D85081"/>
<path id="path552" d="M611.047 410.095H602.569V386.783H611.047V410.095Z" fill="#D85081"/>
<path id="path554" d="M585.788 410.095H594.263V386.782H585.788V410.095Z" fill="#D85081"/>
<path id="path556" d="M568.984 410.095H577.462V386.782H568.984V410.095Z" fill="#D85081"/>
<path id="path558" d="M652.937 446.431H661.415V423.121H652.937V446.431Z" fill="#D85081"/>
<path id="path560" d="M636.141 446.431H644.618V423.121H636.141V446.431Z" fill="#D85081"/>
<path id="path562" d="M619.355 446.431H627.833V423.121H619.355V446.431Z" fill="#D85081"/>
<path id="path564" d="M602.569 446.431H611.047V423.121H602.569V446.431Z" fill="#D85081"/>
<path id="path566" d="M585.788 446.431H594.263V423.121H585.788V446.431Z" fill="#D85081"/>
<path id="path568" d="M577.462 446.431H568.984V423.121H577.462V446.431Z" fill="#D85081"/>
<path id="path570" d="M652.937 482.769H661.415V459.456H652.937V482.769Z" fill="#D85081"/>
<path id="path572" d="M644.618 482.769H636.138V459.456H644.618V482.769Z" fill="#D85081"/>
<path id="path574" d="M627.833 482.769H619.355V459.456H627.833V482.769Z" fill="#D85081"/>
<path id="path576" d="M602.569 482.769H611.047V459.456H602.569V482.769Z" fill="#D85081"/>
<path id="path578" d="M585.788 482.769H594.263V459.456H585.788V482.769Z" fill="#D85081"/>
<path id="path580" d="M568.984 482.769H577.462V459.456H568.984V482.769Z" fill="#D85081"/>
<path id="path582" d="M652.937 519.11H661.415V495.797H652.937V519.11Z" fill="#D85081"/>
<path id="path584" d="M636.141 519.11H644.618V495.797H636.141V519.11Z" fill="#D85081"/>
<path id="path586" d="M619.355 519.11H627.833V495.797H619.355V519.11Z" fill="#D85081"/>
<path id="path588" d="M602.569 519.11H611.047V495.797H602.569V519.11Z" fill="#D85081"/>
<path id="path590" d="M594.263 519.11H585.788V495.797H594.263V519.11Z" fill="#D85081"/>
<path id="path592" d="M568.984 519.11H577.462V495.797H568.984V519.11Z" fill="#D85081"/>
<path id="path594" d="M652.937 555.444H661.415V532.131H652.937V555.444Z" fill="#D85081"/>
<path id="path596" d="M644.618 555.444H636.138V532.131H644.618V555.444Z" fill="#D85081"/>
<path id="path598" d="M619.355 555.444H627.833V532.131H619.355V555.444Z" fill="#D85081"/>
<path id="path600" d="M602.569 555.444H611.047V532.131H602.569V555.444Z" fill="#D85081"/>
<path id="path602" d="M585.788 555.444H594.263V532.131H585.788V555.444Z" fill="#D85081"/>
<path id="path604" d="M568.984 555.444H577.462V532.131H568.984V555.444Z" fill="#D85081"/>
<path id="path606" d="M652.937 591.783H661.415V568.47H652.937V591.783Z" fill="#D85081"/>
<path id="path608" d="M636.141 591.783H644.618V568.47H636.141V591.783Z" fill="#D85081"/>
<path id="path610" d="M619.355 591.783H627.833V568.47H619.355V591.783Z" fill="#D85081"/>
<path id="path612" d="M611.047 591.783H602.569V568.47H611.047V591.783Z" fill="#D85081"/>
<path id="path614" d="M585.788 591.783H594.263V568.47H585.788V591.783Z" fill="#D85081"/>
<path id="path616" d="M577.462 591.783H568.984V568.47H577.462V591.783Z" fill="#D85081"/>
<path id="path618" d="M661.415 628.119H652.937V604.806H661.415V628.119Z" fill="#D85081"/>
<path id="path620" d="M636.141 628.119H644.618V604.806H636.141V628.119Z" fill="#D85081"/>
<path id="path622" d="M627.833 628.119H619.355V604.806H627.833V628.119Z" fill="#D85081"/>
<path id="path624" d="M602.569 628.119H611.047V604.806H602.569V628.119Z" fill="#D85081"/>
<path id="path626" d="M585.788 628.119H594.263V604.806H585.788V628.119Z" fill="#D85081"/>
<path id="path628" d="M568.984 628.119H577.462V604.806H568.984V628.119Z" fill="#D85081"/>
<path id="path630" d="M996.841 616.526H816.627V240.614H996.841V616.526Z" fill="#D85081"/>
<path id="path632" d="M811.509 244.778H1001.97V234.153H811.509V244.778Z" fill="#D85081"/>
<path id="path634" d="M990.79 271.051H822.691V220.551H990.79V271.051Z" fill="#D85081"/>
<path id="path636" d="M911.352 255.067H977.916V199.886H911.352V255.067Z" fill="#D85081"/>
<path id="path638" d="M939.393 215.438H977.916V186.392H950.288L939.393 215.438Z" fill="#D85081"/>
<path id="path640" d="M962.395 226.982H958.66V162.283H962.395V226.982Z" fill="#D85081"/>
<path id="path642" d="M957.173 158.929C957.173 160.779 958.674 162.281 960.525 162.281C962.379 162.281 963.88 160.779 963.88 158.929C963.88 157.075 962.379 155.574 960.525 155.574C958.674 155.574 957.173 157.075 957.173 158.929Z" fill="#D85081"/>
<path id="path646" d="M184.92 329.506V144.724H215.858V95.2293H226.911V22.6381H287.805V-6.10352e-05H293.225V22.6381H305.155V10.1902H310.571V22.6381H349.069V144.724H368.955V329.506H386.001V666.066H172.934V329.506H184.92Z" fill="#D85081"/>
<path id="path648" d="M1290.32 694.697H116.493V638.504H1290.32V694.697Z" fill="#D85081"/>
<path id="path652" d="M1334.02 777.95H99.8434V688.456H1334.02V777.95Z" fill="#C7497C"/>
<path id="path658" d="M493.915 697.048H637.732V468.566H493.915V697.048Z" fill="#C7497C"/>
<path id="path660" d="M659.402 697.048H906.743V585.626H659.402V697.048Z" fill="#C7497C"/>
<path id="path662" d="M719.871 336.697H774.169V610.312H719.871V336.697Z" fill="#C7497C"/>
<path id="path664" d="M759.347 412.503H762.169V263.708H759.347V412.503Z" fill="#C7497C"/>
<path id="path666" d="M750.181 423.788H753V274.993H750.181V423.788Z" fill="#C7497C"/>
<path id="path668" d="M736.783 356.441H769.97V319.772H736.783V356.441Z" fill="#C7497C"/>
<path id="path670" d="M574.59 697.048H669.087V509.467H574.59V697.048Z" fill="#C7497C"/>
<path id="path672" d="M470.594 697.048H293.213V310.96H470.594V697.048Z" fill="#C7497C"/>
<path id="path674" d="M453.169 361.997H310.641V297.691H453.169V361.997Z" fill="#C7497C"/>
<path id="path676" d="M279.472 323.554H484.353V319.039H279.472V323.554Z" fill="#C7497C"/>
<path id="path678" d="M419.163 697.048H502.743V502.063H419.163V697.048Z" fill="#C7497C"/>
<path id="path680" d="M1005.45 697.048H1101.36V494.656H1005.45V697.048Z" fill="#C7497C"/>
<path id="path682" d="M1070.33 697.048H879.227V439.653H1070.33V697.048Z" fill="#C7497C"/>
<path id="path684" d="M874.292 439.654H1081.48V429.781H874.292V439.654Z" fill="#C7497C"/>
<path id="path686" d="M977.898 455.171H1061.88V402.985H977.898V455.171Z" fill="#C7497C"/>
<path id="path688" d="M936.356 434.719H950.461V402.984H936.356V434.719Z" fill="#C7497C"/>
<path id="path690" d="M906.735 434.719H922.25V402.984H906.735V434.719Z" fill="#C7497C"/>
<path id="path692" d="M1053.42 697.048H1153.56V618.771H1053.42V697.048Z" fill="#C7497C"/>
<path id="path694" d="M1143.95 697.048H1191.37V585.626H1143.95V697.048Z" fill="#C7497C"/>
<path id="path696" d="M1167.66 697.048H1248.7V657.91H1167.66V697.048Z" fill="#C7497C"/>
<path id="path698" d="M824.118 696.781H326.7V609.368H824.118V696.781Z" fill="#C7497C"/>
<path id="path882" d="M688.1 395.881V400.038H692.241V411.887H619.361V777.146H738.958V430.945V411.887V400.038H743.298V395.881H688.1Z" fill="#7A2864"/>
<path id="path884" d="M381.913 777.146H484.353V561.789H381.913V777.146Z" fill="#7A2864"/>
<path id="path886" d="M930.833 777.146H847.561V512.422H930.833V777.146Z" fill="#7A2864"/>
<path id="path888" d="M773.322 777.146H864.067V567.581H773.322V777.146Z" fill="#7A2864"/>
<path id="path890" d="M900.887 533.481H864.068V501.801H900.887V533.481Z" fill="#7A2864"/>
<path id="path892" d="M761.099 571.879H857.833V564.131H761.099V571.879Z" fill="#7A2864"/>
<path id="path894" d="M681.323 777.146H783.062V657.466H681.323V777.146Z" fill="#7A2864"/>
<path id="path896" d="M1029.13 777.146H1111.89V560.119H1029.13V777.146Z" fill="#7A2864"/>
<path id="path898" d="M1074.84 777.146H1183.71V668.272H1074.84V777.146Z" fill="#7A2864"/>
<path id="path900" d="M1235.49 777.146H1303.59V650.476H1235.49V777.146Z" fill="#7A2864"/>
<path id="path902" d="M1087.74 777.146H1248.7V737.469H1087.74V777.146Z" fill="#7A2864"/>
<path id="path904" d="M1282.75 777.146H1365.25V724.646H1282.75V777.146Z" fill="#7A2864"/>
<path id="path906" d="M900.874 777.146H1029.12V697.048H900.874V777.146Z" fill="#7A2864"/>
<path id="path908" d="M453.175 777.146H652.939V742.639H453.175V777.146Z" fill="#7A2864"/>
<path id="path910" d="M99.0017 777.146H298.763V742.639H99.0017V777.146Z" fill="#7A2864"/>
<path id="path912" d="M460.949 641.338H536.879L568.985 759.894H460.949V641.338Z" fill="#7A2864"/>
<path id="path914" d="M423.731 600.354H425.846V468.835H423.731V600.354Z" fill="#7A2864"/>
<path id="path916" d="M412.462 590.944H415.281V513.341H412.462V590.944Z" fill="#7A2864"/>
<path id="path918" d="M391.985 565.506H430.399V527.092H391.985V565.506Z" fill="#7A2864"/>
<path id="path920" d="M386.003 527.55H436.879V524.109H386.003V527.55Z" fill="#7A2864"/>
<path id="path922" d="M276.409 777.146H400.532V666.068H276.409V777.146Z" fill="#7A2864"/>
<path id="path924" d="M220.414 543.79H300.157V758.114H220.414V543.79Z" fill="#7A2864"/>
<path id="path978" d="M922.25 532.131H915.946V525.829H922.25V532.131Z" fill="#D85081"/>
<path id="path980" d="M909.586 532.131H903.284V525.829H909.586V532.131Z" fill="#D85081"/>
<path id="path982" d="M922.25 546.94H915.946V540.639H922.25V546.94Z" fill="#D85081"/>
<path id="path984" d="M909.586 546.94H903.284V540.639H909.586V546.94Z" fill="#D85081"/>
<path id="path986" d="M922.25 561.254H915.946V554.953H922.25V561.254Z" fill="#D85081"/>
<path id="path988" d="M895.501 532.131H889.199V525.829H895.501V532.131Z" fill="#D85081"/>
<path id="path990" d="M460.954 360.319H456.653V336.523H460.954V360.319Z" fill="#ED95B2"/>
<path id="path992" d="M446.138 360.319H441.836V336.523H446.138V360.319Z" fill="#ED95B2"/>
<path id="path994" d="M431.325 360.319H427.026V336.523H431.325V360.319Z" fill="#ED95B2"/>
<path id="path996" d="M416.509 360.319H412.21V336.523H416.509V360.319Z" fill="#ED95B2"/>
<path id="path998" d="M401.692 360.319H397.394V336.523H401.692V360.319Z" fill="#ED95B2"/>
<path id="path1000" d="M386.875 360.319H382.577V336.523H386.875V360.319Z" fill="#ED95B2"/>
<path id="path1002" d="M372.059 360.319H367.758V336.523H372.059V360.319Z" fill="#ED95B2"/>
<path id="path1004" d="M357.255 360.319H352.954V336.523H357.255V360.319Z" fill="#ED95B2"/>
<path id="path1006" d="M342.427 360.319H338.129V336.523H342.427V360.319Z" fill="#ED95B2"/>
<path id="path1008" d="M327.611 360.319H323.313V336.523H327.611V360.319Z" fill="#ED95B2"/>
<path id="path1010" d="M310.643 360.319H308.494V336.523H310.643V360.319Z" fill="#ED95B2"/>
<path id="path1012" d="M312.794 360.319H310.644V336.523H312.794V360.319Z" fill="#ED95B2"/>
<path id="path1014" d="M460.954 393.445H456.653V369.649H460.954V393.445Z" fill="#ED95B2"/>
<path id="path1016" d="M446.138 393.445H441.836V369.649H446.138V393.445Z" fill="#ED95B2"/>
<path id="path1018" d="M431.325 393.445H427.026V369.649H431.325V393.445Z" fill="#ED95B2"/>
<path id="path1020" d="M416.509 393.445H412.21V369.649H416.509V393.445Z" fill="#ED95B2"/>
<path id="path1022" d="M401.692 393.445H397.394V369.649H401.692V393.445Z" fill="#ED95B2"/>
<path id="path1024" d="M386.875 393.445H382.577V369.649H386.875V393.445Z" fill="#ED95B2"/>
<path id="path1026" d="M372.059 393.445H367.758V369.649H372.059V393.445Z" fill="#ED95B2"/>
<path id="path1028" d="M357.255 393.445H352.954V369.649H357.255V393.445Z" fill="#ED95B2"/>
<path id="path1030" d="M342.427 393.445H338.129V369.649H342.427V393.445Z" fill="#ED95B2"/>
<path id="path1032" d="M327.611 393.445H323.313V369.649H327.611V393.445Z" fill="#ED95B2"/>
<path id="path1034" d="M312.794 393.445H308.495V369.649H312.794V393.445Z" fill="#ED95B2"/>
<path id="path1036" d="M460.954 426.573H456.653V402.777H460.954V426.573Z" fill="#ED95B2"/>
<path id="path1038" d="M446.138 426.573H441.836V402.777H446.138V426.573Z" fill="#ED95B2"/>
<path id="path1040" d="M431.325 426.573H427.026V402.777H431.325V426.573Z" fill="#ED95B2"/>
<path id="path1042" d="M416.509 426.573H412.21V402.777H416.509V426.573Z" fill="#ED95B2"/>
<path id="path1044" d="M401.692 426.573H397.394V402.777H401.692V426.573Z" fill="#ED95B2"/>
<path id="path1046" d="M386.875 426.573H382.577V402.777H386.875V426.573Z" fill="#ED95B2"/>
<path id="path1048" d="M372.059 426.573H367.758V402.777H372.059V426.573Z" fill="#ED95B2"/>
<path id="path1050" d="M357.255 426.573H352.954V402.777H357.255V426.573Z" fill="#ED95B2"/>
<path id="path1052" d="M342.427 426.573H338.129V402.777H342.427V426.573Z" fill="#ED95B2"/>
<path id="path1054" d="M327.611 426.573H323.313V402.777H327.611V426.573Z" fill="#ED95B2"/>
<path id="path1056" d="M312.794 426.573H308.495V402.777H312.794V426.573Z" fill="#ED95B2"/>
<path id="path1058" d="M416.509 459.702H412.21V435.906H416.509V459.702Z" fill="#ED95B2"/>
<path id="path1060" d="M401.692 459.702H397.394V435.906H401.692V459.702Z" fill="#ED95B2"/>
<path id="path1062" d="M386.875 459.702H382.577V435.906H386.875V459.702Z" fill="#ED95B2"/>
<path id="path1064" d="M372.059 459.702H367.758V435.906H372.059V459.702Z" fill="#ED95B2"/>
<path id="path1066" d="M357.255 459.702H352.954V435.906H357.255V459.702Z" fill="#ED95B2"/>
<path id="path1068" d="M342.427 459.702H338.129V435.906H342.427V459.702Z" fill="#ED95B2"/>
<path id="path1070" d="M327.611 459.702H323.313V435.906H327.611V459.702Z" fill="#ED95B2"/>
<path id="path1072" d="M312.794 459.702H308.495V435.906H312.794V459.702Z" fill="#ED95B2"/>
<path id="path1074" d="M401.692 494.667H397.394V470.871H401.692V494.667Z" fill="#ED95B2"/>
<path id="path1076" d="M386.875 494.667H382.577V470.871H386.875V494.667Z" fill="#ED95B2"/>
<path id="path1078" d="M372.059 494.667H367.758V470.871H372.059V494.667Z" fill="#ED95B2"/>
<path id="path1080" d="M357.255 494.667H352.954V470.871H357.255V494.667Z" fill="#ED95B2"/>
<path id="path1082" d="M342.427 494.667H338.129V470.871H342.427V494.667Z" fill="#ED95B2"/>
<path id="path1084" d="M327.611 494.667H323.313V470.871H327.611V494.667Z" fill="#ED95B2"/>
<path id="path1086" d="M312.794 494.667H308.495V470.871H312.794V494.667Z" fill="#ED95B2"/>
<path id="path1184" d="M338.138 58.9006H329.688V36.357H338.138V58.9006Z" fill="#ED95B2"/>
<path id="path1186" d="M317.267 58.9006H308.817V36.357H317.267V58.9006Z" fill="#ED95B2"/>
<path id="path1188" d="M296.427 58.9005H287.977V36.3569H296.427V58.9005Z" fill="#ED95B2"/>
<path id="path1190" d="M275.572 58.9005H267.122V36.3569H275.572V58.9005Z" fill="#ED95B2"/>
<path id="path1192" d="M338.138 96.4463H329.688V73.9027H338.138V96.4463Z" fill="#ED95B2"/>
<path id="path1194" d="M317.267 96.4463H308.817V73.9027H317.267V96.4463Z" fill="#ED95B2"/>
<path id="path1196" d="M296.427 96.4462H287.977V73.9026H296.427V96.4462Z" fill="#ED95B2"/>
<path id="path1198" d="M275.572 96.4462H267.122V73.9026H275.572V96.4462Z" fill="#ED95B2"/>
<path id="path1200" d="M338.138 133.992H329.688V111.447H338.138V133.992Z" fill="#ED95B2"/>
<path id="path1202" d="M317.267 133.992H308.817V111.447H317.267V133.992Z" fill="#ED95B2"/>
<path id="path1206" d="M900.887 285.41H895.513V271.053H900.887V285.41Z" fill="#897897"/>
<path id="path1208" d="M900.887 271.051H895.513V264.745H900.887V271.051Z" fill="#897897"/>
<path id="path1210" d="M881.911 285.41H876.538V271.053H881.911V285.41Z" fill="#897897"/>
<path id="path1212" d="M881.911 271.051H876.538V264.745H881.911V271.051Z" fill="#897897"/>
<path id="path1214" d="M859.739 285.41H854.367V271.053H859.739V285.41Z" fill="#897897"/>
<path id="path1216" d="M859.739 271.051H854.367V264.745H859.739V271.051Z" fill="#897897"/>
<path id="path1218" d="M840.79 285.41H835.415V271.053H840.79V285.41Z" fill="#897897"/>
<path id="path1220" d="M840.79 271.051H835.415V264.745H840.79V271.051Z" fill="#897897"/>
<path id="path1222" d="M943.013 285.41H937.64V271.053H943.013V285.41Z" fill="#897897"/>
<path id="path1224" d="M943.013 271.051H937.64V264.745H943.013V271.051Z" fill="#897897"/>
<path id="path1226" d="M924.052 285.41H918.677V271.053H924.052V285.41Z" fill="#897897"/>
<path id="path1228" d="M924.052 271.051H918.677V264.745H924.052V271.051Z" fill="#897897"/>
<path id="path1230" d="M900.887 321.295H895.513V300.63H900.887V321.295Z" fill="#897897"/>
<path id="path1232" d="M881.911 321.295H876.538V300.63H881.911V321.295Z" fill="#897897"/>
<path id="path1234" d="M859.739 321.295H854.367V300.63H859.739V321.295Z" fill="#897897"/>
<path id="path1236" d="M840.79 321.295H835.415V300.63H840.79V321.295Z" fill="#897897"/>
<path id="path1238" d="M943.013 321.295H937.64V300.63H943.013V321.295Z" fill="#897897"/>
<path id="path1240" d="M924.052 321.295H918.677V300.63H924.052V321.295Z" fill="#897897"/>
<path id="path1242" d="M900.887 357.179H895.513V336.514H900.887V357.179Z" fill="#897897"/>
<path id="path1244" d="M881.911 357.179H876.538V336.514H881.911V357.179Z" fill="#897897"/>
<path id="path1246" d="M859.739 357.179H854.367V336.514H859.739V357.179Z" fill="#897897"/>
<path id="path1248" d="M840.79 357.179H835.415V336.514H840.79V357.179Z" fill="#897897"/>
<path id="path1250" d="M943.013 357.179H937.64V336.514H943.013V357.179Z" fill="#897897"/>
<path id="path1252" d="M924.052 357.179H918.677V336.514H924.052V357.179Z" fill="#897897"/>
</g>
<rect id="Rectangle 735" y="592" width="1409" height="209" fill="url(#paint0_linear_223_3471)"/>
</g>
<defs>
<linearGradient id="paint0_linear_223_3471" x1="704.5" y1="592" x2="704.5" y2="801" gradientUnits="userSpaceOnUse">
<stop stop-color="#F9F7F6" stop-opacity="0"/>
<stop offset="1" stop-color="#F9F7F6"/>
</linearGradient>
</defs>
</svg>
