<svg width="1903" height="334" viewBox="0 0 1903 334" fill="none" xmlns="http://www.w3.org/2000/svg">
<g id="Future of NFT" opacity="0.6" filter="url(#filter0_d_223_3354)">
<path d="M62.2828 244.355L62.2828 50.2627L183.655 50.2627V85.07L102.136 85.07V129.194H178.35V164.13H102.136L102.136 244.355H62.2828Z" fill="url(#paint0_linear_223_3354)" fill-opacity="0.4" shape-rendering="crispEdges"/>
<path d="M343.132 244.355L312.983 244.355L311.689 223.652C307.117 231.243 301.036 237.023 293.445 240.991C285.94 244.959 277.141 246.943 267.048 246.943C250.485 246.943 237.503 241.854 228.1 231.675C218.697 221.496 213.996 207.521 213.996 189.751L213.996 114.96H251.132L251.132 181.211C251.132 191.303 253.505 199.24 258.249 205.019C263.08 210.713 269.636 213.559 277.917 213.559C286.544 213.559 293.358 210.583 298.362 204.631C303.451 198.593 305.996 190.441 305.996 180.175V114.96H343.132L343.132 244.355Z" fill="url(#paint1_linear_223_3354)" fill-opacity="0.4" shape-rendering="crispEdges"/>
<path d="M467.802 240.991C457.882 244.959 448.263 246.943 438.947 246.943C429.285 246.943 420.745 244.916 413.327 240.862C405.994 236.721 400.258 230.985 396.117 223.652C391.977 216.234 389.906 207.693 389.906 198.032V148.085L367.262 148.085V114.96L391.847 114.96V82.6115H427.043V114.96L462.885 114.96V148.085H427.043V191.303C427.043 198.377 428.984 203.898 432.865 207.866C436.747 211.748 441.578 213.689 447.358 213.689C452.62 213.689 457.752 212.05 462.756 208.772L467.802 240.991Z" fill="url(#paint2_linear_223_3354)" fill-opacity="0.4" shape-rendering="crispEdges"/>
<path d="M618.61 244.355H588.461L587.167 223.652C582.595 231.243 576.513 237.023 568.922 240.991C561.417 244.959 552.618 246.943 542.525 246.943C525.963 246.943 512.98 241.854 503.577 231.675C494.175 221.496 489.473 207.521 489.473 189.751V114.96H526.61V181.211C526.61 191.303 528.982 199.24 533.726 205.019C538.557 210.713 545.113 213.559 553.394 213.559C562.021 213.559 568.836 210.583 573.839 204.631C578.928 198.593 581.473 190.441 581.473 180.175V114.96H618.61V244.355Z" fill="url(#paint3_linear_223_3354)" fill-opacity="0.4" shape-rendering="crispEdges"/>
<path d="M689.968 244.355L652.832 244.355V114.96H685.181L686.475 137.346C690.788 129.496 696.654 123.371 704.072 118.972C711.491 114.572 719.988 112.372 729.563 112.372C732.324 112.372 735.084 112.588 737.845 113.019C740.691 113.364 743.581 113.925 746.514 114.702L741.856 148.085C736.162 146.446 730.771 145.627 725.681 145.627C718.522 145.627 712.224 147.266 706.79 150.544C701.441 153.736 697.301 158.221 694.368 164.001C691.435 169.694 689.968 176.38 689.968 184.057V244.355Z" fill="url(#paint4_linear_223_3354)" fill-opacity="0.4" shape-rendering="crispEdges"/>
<path d="M885.417 229.863C869.372 241.25 851.818 246.943 832.753 246.943C818.606 246.943 805.882 243.924 794.582 237.886C783.368 231.761 774.482 223.48 767.926 213.042C761.457 202.604 758.222 190.829 758.222 177.717C758.222 165.209 761.155 154.038 767.021 144.204C772.973 134.37 781.039 126.606 791.218 120.912C801.397 115.219 812.956 112.372 825.895 112.372C839.266 112.372 851.041 115.521 861.22 121.818C871.399 128.029 879.336 136.742 885.029 147.956C890.722 159.084 893.569 171.98 893.569 186.645V190.786L798.205 190.786C799.758 195.875 802.302 200.361 805.839 204.243C809.376 208.039 813.775 211.058 819.038 213.301C824.3 215.543 830.338 216.665 837.153 216.665C850.351 216.665 862.644 212.395 874.03 203.855L885.417 229.863ZM796.523 171.894L859.279 171.894C858.589 166.287 856.821 161.37 853.974 157.143C851.214 152.83 847.548 149.466 842.976 147.05C838.49 144.635 833.444 143.427 827.836 143.427C822.143 143.427 817.053 144.678 812.568 147.18C808.168 149.681 804.588 153.046 801.828 157.273C799.068 161.499 797.299 166.373 796.523 171.894Z" fill="url(#paint5_linear_223_3354)" fill-opacity="0.4" shape-rendering="crispEdges"/>
<path d="M1043.92 246.943C1030.64 246.943 1018.73 244.054 1008.21 238.274C997.684 232.408 989.403 224.429 983.364 214.336C977.412 204.157 974.436 192.597 974.436 179.658C974.436 166.805 977.412 155.332 983.364 145.239C989.403 135.06 997.684 127.037 1008.21 121.171C1018.73 115.305 1030.64 112.372 1043.92 112.372C1057.21 112.372 1069.02 115.305 1079.38 121.171C1089.81 127.037 1098.01 135.06 1103.96 145.239C1110 155.332 1113.02 166.805 1113.02 179.658C1113.02 192.597 1110 204.157 1103.96 214.336C1098.01 224.429 1089.81 232.408 1079.38 238.274C1069.02 244.054 1057.21 246.943 1043.92 246.943ZM1043.79 213.689C1049.74 213.689 1055.05 212.222 1059.71 209.289C1064.45 206.27 1068.16 202.216 1070.84 197.126C1073.6 191.95 1074.98 186.041 1074.98 179.399C1074.98 173.016 1073.6 167.279 1070.84 162.19C1068.16 157.1 1064.45 153.089 1059.71 150.156C1055.05 147.137 1049.74 145.627 1043.79 145.627C1037.75 145.627 1032.36 147.137 1027.62 150.156C1022.96 153.089 1019.25 157.1 1016.49 162.19C1013.82 167.279 1012.48 173.016 1012.48 179.399C1012.48 186.041 1013.82 191.95 1016.49 197.126C1019.25 202.216 1022.96 206.27 1027.62 209.289C1032.36 212.222 1037.75 213.689 1043.79 213.689Z" fill="url(#paint6_linear_223_3354)" fill-opacity="0.4" shape-rendering="crispEdges"/>
<path d="M1186.96 244.355H1149.83V148.085H1127.18V114.96H1149.83V94.7746C1149.83 85.4582 1152.03 77.1769 1156.43 69.9308C1160.83 62.5984 1166.87 56.8619 1174.54 52.7212C1182.31 48.4943 1191.11 46.3808 1200.94 46.3808C1207.15 46.3808 1213.49 47.2866 1219.96 49.0981C1226.43 50.8234 1232.81 53.5838 1239.11 57.3794L1225.01 86.2346C1222.25 83.9917 1219.31 82.3527 1216.21 81.3175C1213.19 80.1961 1210.17 79.6354 1207.15 79.6354C1201.46 79.6354 1196.67 81.6195 1192.79 85.5876C1188.91 89.5557 1186.96 95.0334 1186.96 102.021V114.96H1225.65V148.085H1186.96V244.355Z" fill="url(#paint7_linear_223_3354)" fill-opacity="0.4" shape-rendering="crispEdges"/>
<path d="M1500.35 244.355H1454.55L1363.84 111.855V244.355H1323.99V50.2627L1369.8 50.2627L1460.5 183.022V50.2627L1500.35 50.2627V244.355Z" fill="url(#paint8_linear_223_3354)" fill-opacity="0.4" shape-rendering="crispEdges"/>
<path d="M1534.71 244.355V50.2627L1656.08 50.2627V85.07L1574.56 85.07V129.194H1650.77V164.13L1574.56 164.13V244.355L1534.71 244.355Z" fill="url(#paint9_linear_223_3354)" fill-opacity="0.4" shape-rendering="crispEdges"/>
<path d="M1775.44 244.355L1735.59 244.355V85.07L1678.4 85.07V50.2627L1832.77 50.2627V85.07H1775.44V244.355Z" fill="url(#paint10_linear_223_3354)" fill-opacity="0.4" shape-rendering="crispEdges"/>
</g>
<defs>
<filter id="filter0_d_223_3354" x="3.38556e-05" y="7.62943e-05" width="1903" height="333.079" filterUnits="userSpaceOnUse" color-interpolation-filters="sRGB">
<feFlood flood-opacity="0" result="BackgroundImageFix"/>
<feColorMatrix in="SourceAlpha" type="matrix" values="0 0 0 0 0 0 0 0 0 0 0 0 0 0 0 0 0 0 127 0" result="hardAlpha"/>
<feOffset dx="3.97547" dy="19.8774"/>
<feGaussianBlur stdDeviation="33.129"/>
<feComposite in2="hardAlpha" operator="out"/>
<feColorMatrix type="matrix" values="0 0 0 0 0.958333 0 0 0 0 0.939167 0 0 0 0 0.926389 0 0 0 1 0"/>
<feBlend mode="normal" in2="BackgroundImageFix" result="effect1_dropShadow_223_3354"/>
<feBlend mode="normal" in="SourceGraphic" in2="effect1_dropShadow_223_3354" result="shape"/>
</filter>
<linearGradient id="paint0_linear_223_3354" x1="1527.5" y1="65.3546" x2="1391.24" y2="523.589" gradientUnits="userSpaceOnUse">
<stop stop-color="#FAEDF9"/>
<stop offset="0.380301" stop-color="#D6D9F5"/>
<stop offset="0.724849" stop-color="#D5D1EB"/>
<stop offset="1" stop-color="#E5E5F1"/>
</linearGradient>
<linearGradient id="paint1_linear_223_3354" x1="1527.5" y1="65.3546" x2="1391.24" y2="523.589" gradientUnits="userSpaceOnUse">
<stop stop-color="#FAEDF9"/>
<stop offset="0.380301" stop-color="#D6D9F5"/>
<stop offset="0.724849" stop-color="#D5D1EB"/>
<stop offset="1" stop-color="#E5E5F1"/>
</linearGradient>
<linearGradient id="paint2_linear_223_3354" x1="1527.5" y1="65.3546" x2="1391.24" y2="523.589" gradientUnits="userSpaceOnUse">
<stop stop-color="#FAEDF9"/>
<stop offset="0.380301" stop-color="#D6D9F5"/>
<stop offset="0.724849" stop-color="#D5D1EB"/>
<stop offset="1" stop-color="#E5E5F1"/>
</linearGradient>
<linearGradient id="paint3_linear_223_3354" x1="1527.5" y1="65.3546" x2="1391.24" y2="523.589" gradientUnits="userSpaceOnUse">
<stop stop-color="#FAEDF9"/>
<stop offset="0.380301" stop-color="#D6D9F5"/>
<stop offset="0.724849" stop-color="#D5D1EB"/>
<stop offset="1" stop-color="#E5E5F1"/>
</linearGradient>
<linearGradient id="paint4_linear_223_3354" x1="1527.5" y1="65.3546" x2="1391.24" y2="523.589" gradientUnits="userSpaceOnUse">
<stop stop-color="#FAEDF9"/>
<stop offset="0.380301" stop-color="#D6D9F5"/>
<stop offset="0.724849" stop-color="#D5D1EB"/>
<stop offset="1" stop-color="#E5E5F1"/>
</linearGradient>
<linearGradient id="paint5_linear_223_3354" x1="1527.5" y1="65.3546" x2="1391.24" y2="523.589" gradientUnits="userSpaceOnUse">
<stop stop-color="#FAEDF9"/>
<stop offset="0.380301" stop-color="#D6D9F5"/>
<stop offset="0.724849" stop-color="#D5D1EB"/>
<stop offset="1" stop-color="#E5E5F1"/>
</linearGradient>
<linearGradient id="paint6_linear_223_3354" x1="1527.5" y1="65.3546" x2="1391.24" y2="523.589" gradientUnits="userSpaceOnUse">
<stop stop-color="#FAEDF9"/>
<stop offset="0.380301" stop-color="#D6D9F5"/>
<stop offset="0.724849" stop-color="#D5D1EB"/>
<stop offset="1" stop-color="#E5E5F1"/>
</linearGradient>
<linearGradient id="paint7_linear_223_3354" x1="1527.5" y1="65.3546" x2="1391.24" y2="523.589" gradientUnits="userSpaceOnUse">
<stop stop-color="#FAEDF9"/>
<stop offset="0.380301" stop-color="#D6D9F5"/>
<stop offset="0.724849" stop-color="#D5D1EB"/>
<stop offset="1" stop-color="#E5E5F1"/>
</linearGradient>
<linearGradient id="paint8_linear_223_3354" x1="1527.5" y1="65.3546" x2="1391.24" y2="523.589" gradientUnits="userSpaceOnUse">
<stop stop-color="#FAEDF9"/>
<stop offset="0.380301" stop-color="#D6D9F5"/>
<stop offset="0.724849" stop-color="#D5D1EB"/>
<stop offset="1" stop-color="#E5E5F1"/>
</linearGradient>
<linearGradient id="paint9_linear_223_3354" x1="1527.5" y1="65.3546" x2="1391.24" y2="523.589" gradientUnits="userSpaceOnUse">
<stop stop-color="#FAEDF9"/>
<stop offset="0.380301" stop-color="#D6D9F5"/>
<stop offset="0.724849" stop-color="#D5D1EB"/>
<stop offset="1" stop-color="#E5E5F1"/>
</linearGradient>
<linearGradient id="paint10_linear_223_3354" x1="1527.5" y1="65.3546" x2="1391.24" y2="523.589" gradientUnits="userSpaceOnUse">
<stop stop-color="#FAEDF9"/>
<stop offset="0.380301" stop-color="#D6D9F5"/>
<stop offset="0.724849" stop-color="#D5D1EB"/>
<stop offset="1" stop-color="#E5E5F1"/>
</linearGradient>
</defs>
</svg>
